<!-- Generated by IcoMoon.io -->
<svg version="1.1" xmlns="http://www.w3.org/2000/svg" width="32" height="32" viewBox="0 0 32 32">
<path fill="#7a7a7a" d="M8 8h16c4.418 0 8 3.582 8 8s-3.582 8-8 8h-16c-4.418 0-8-3.582-8-8s3.582-8 8-8z"></path>
<path fill="#fff" d="M16.4 16c0 4.418-3.671 8-8.2 8s-8.2-3.582-8.2-8c0-4.418 3.671-8 8.2-8s8.2 3.582 8.2 8z"></path>
<path fill="none" stroke="#000" stroke-linejoin="miter" stroke-linecap="butt" stroke-miterlimit="4" stroke-width="0.4" d="M16.2 16c0 4.308-3.582 7.8-8 7.8s-8-3.492-8-7.8c0-4.308 3.582-7.8 8-7.8s8 3.492 8 7.8z"></path>
<path fill="#000" d="M14.213 16c0 3.24-2.692 5.867-6.013 5.867s-6.013-2.627-6.013-5.867c0-3.24 2.692-5.867 6.013-5.867s6.013 2.627 6.013 5.867z"></path>
</svg>
