<!-- Generated by IcoMoon.io -->
<svg version="1.1" xmlns="http://www.w3.org/2000/svg" width="32" height="32" viewBox="0 0 32 32">
<path fill="none" stroke="#fff" stroke-linejoin="miter" stroke-linecap="butt" stroke-miterlimit="4" stroke-width="3.999" d="M24.081 13.040c0 6.098-4.943 11.041-11.041 11.041s-11.041-4.943-11.041-11.041c0-6.098 4.943-11.041 11.041-11.041s11.041 4.943 11.041 11.041z"></path>
<path fill="#fff" d="M28.578 31.406l-8.476-8.476 2.828-2.828 8.476 8.476-2.828 2.828zM31.35 28.578h0.057c0.792 0.792 0.792 2.036 0 2.828s-2.036 0.792-2.828 0v-0.057l2.771-2.771zM20.131 22.958l-1.442-1.442 2.828-2.828 1.442 1.442-2.828 2.828z"></path>
</svg>
